<svg width="56" height="56" viewBox="0 0 56 56" fill="none" xmlns="http://www.w3.org/2000/svg">
<ellipse cx="27.9709" cy="28" rx="27.9709" ry="28" fill="#4CDF75"/>
<path d="M48.6454 37.6821C49.0505 38.3185 49.196 39.0857 49.0518 39.8259C48.9077 40.5661 48.4848 41.2231 47.8703 41.6615C42.1071 45.7834 35.1956 48 28.1061 48C21.0166 48 14.1051 45.7834 8.34197 41.6615C7.72744 41.2231 7.3046 40.5661 7.16043 39.8259C7.01626 39.0857 7.16173 38.3185 7.5669 37.6821L25.6149 9.36557C25.8815 8.94709 26.2496 8.60255 26.6851 8.36385C27.1206 8.12514 27.6093 8 28.1061 8C28.6029 8 29.0917 8.12514 29.5272 8.36385C29.9627 8.60255 30.3308 8.94709 30.5974 9.36557L41.3745 26.2781H41.393L48.6454 37.6821ZM10.0582 39.2665C15.3216 43.0287 21.6327 45.0517 28.1061 45.0517C34.5796 45.0517 40.8906 43.0287 46.1541 39.2665L44.5671 36.7794C39.7787 40.2406 34.0179 42.104 28.1061 42.104C22.1944 42.104 16.4336 40.2406 11.6452 36.7794L10.0582 39.2665ZM16.8677 28.581C17.1959 29.1118 17.6549 29.5497 18.2009 29.8529C18.7469 30.1561 19.3616 30.3144 19.9864 30.3128C20.9154 30.2986 21.8048 29.9352 22.4772 29.2951C23.1496 28.655 23.5554 27.7853 23.6137 26.8596C23.6719 25.9338 23.3783 25.0203 22.7914 24.3012C22.2046 23.5821 21.3677 23.1104 20.4478 22.9803L16.8677 28.581ZM28.1061 10.95L22.1086 20.3458C23.5997 20.8496 24.8632 21.8657 25.6738 23.2129C26.4844 24.5602 26.7895 26.151 26.5347 27.7018C26.2798 29.2527 25.4816 30.6628 24.2823 31.6809C23.0831 32.6989 21.5606 33.2587 19.9864 33.2605C19.0892 33.2648 18.2005 33.0856 17.3753 32.7339C16.5501 32.3822 15.8059 31.8654 15.1884 31.2155L13.2323 34.2738C17.5406 37.4457 22.753 39.157 28.1061 39.157C33.4593 39.157 38.6717 37.4457 42.98 34.2738L39.7875 29.2811C39.0508 29.748 38.2291 30.0655 37.3695 30.2155C36.5099 30.3654 35.6291 30.3448 34.7774 30.1549C33.0574 29.7714 31.5605 28.7215 30.6159 27.2361C30.1482 26.5006 29.8301 25.6804 29.6799 24.8222C29.5298 23.964 29.5504 23.0847 29.7406 22.2344C30.1247 20.5173 31.1764 19.0228 32.6643 18.0798L28.1061 10.95ZM34.2513 20.5853C33.5708 21.0076 33.0473 21.6405 32.7607 22.3875C32.4741 23.1345 32.44 23.9545 32.6637 24.7226C32.8874 25.4907 33.3566 26.1647 33.9997 26.6418C34.6429 27.1189 35.4247 27.3729 36.2259 27.3651C36.9247 27.3632 37.6089 27.1653 38.2004 26.794L34.2513 20.5853Z" fill="#DCF446"/>
</svg>
